<?xml version="1.0" encoding="UTF-8"?>
<svg width="700pt" height="700pt" version="1.1" viewBox="0 0 700 700" xmlns="http://www.w3.org/2000/svg">
 <g fill-rule="evenodd">
  <path d="m449.61 275.88c-270.51 269.86-304.19 347.87-341.11 384.79-10.551 10.551-31.402 8.2422-59.129-6.3828-14.625-27.727-16.934-48.578-6.3828-59.129 36.918-36.918 114.93-70.605 384.79-341.11 0.035156-0.035156 0.070312-0.070313 0.10547-0.10938 25.477-25.477-18.195-54.59 36.395-109.18 54.594-54.594 133.27-111.43 134.66-112.82 1.3945-1.3945 4.5508 0.91016 2.7305 2.7266-1.8203 1.8203-104.64 106.46-108.28 110.1s-1.8203 9.0977 0.91016 11.828l1.8203 1.8203c2.8164 2.8164 8.1875 4.5469 11.828 0.91016 3.6406-3.6406 115.55-106.46 117.38-108.28 1.8203-1.8203 5.457 1.8203 3.6406 3.6406-1.8203 1.8203-108.28 113.73-111.92 117.38-3.6367 3.6367-1.707 9.2109 0.91016 11.828l1.8203 1.8203c2.9062 2.9062 8.1875 4.5469 11.828 0.91016 3.6406-3.6406 115.55-110.1 117.38-111.92 1.8203-1.8203 5.4609 1.8203 3.6406 3.6406-1.8203 1.8203-104.64 113.73-108.28 117.38s-1.7852 9.1289 0.91016 11.828l1.8203 1.8203c2.7305 2.7305 8.1875 4.5469 11.828 0.91016 3.6406-3.6406 108.28-106.46 110.09-108.28 1.8203-1.8203 4.5508 0.91016 2.7305 2.7305-1.8203 1.8203-71.828 93.664-112.82 134.66-54.594 54.594-83.711 10.922-109.19 36.398-0.035156 0.035156-0.070313 0.070312-0.10547 0.10547z"/>
  <path d="m344.82 322.94c-17.848-17.324-36.723-35.879-56.68-55.773-35.969-35.969-84.844-84.855-137.69-137.7-87.121-87.121-96.141-86.242-112.14-70.234-30.855 30.855 110.34 207.95 164.93 262.54 51.891 51.891 85.391-1.1875 110.46 15.309 2.5586 2.625 5.0938 5.2305 7.5977 7.8125 7.6523-7.0781 15.492-14.395 23.527-21.957zm36.133 34.723c185.16 176.1 246.61 205.26 278.12 236.77 10.547 10.551 8.2383 31.402-6.3828 59.129-27.727 14.625-48.582 16.934-59.129 6.3828-31.465-31.465-60.582-92.777-235.96-277.27 7.5078-8.125 15.285-16.461 23.348-25.02z"/>
 </g>
</svg>
